<svg width="300" height="300" viewBox="0 0 300 300" fill="none" xmlns="http://www.w3.org/2000/svg">
<g clip-path="url(#clip0_376_23)">
<path d="M298.11 299.79H205.44C197.94 292.04 185.75 289.16 174.84 286.27C162.04 282.89 147.65 276.54 144.87 263.83C143.16 256.02 146.51 247.79 144.85 239.98C142.51 228.97 131.24 222.22 120.55 218.17C109.85 214.12 98.03 211 90.56 202.47C78.27 188.45 82.49 165.18 69.62 151.66C55.82 137.18 28.15 140.21 17.59 123.31C14.6 118.53 13.57 112.83 12.92 107.26C11.75 97.1703 11.67 86.9604 12.68 76.8503C13.46 69.0203 14.87 60.9203 12.34 53.4604C10.51 48.0504 5.7 43.2203 0.309998 41.9604L0.369998 8.36035C0.849998 11.1804 2.09 13.6104 4.68 14.6904C7.16 15.7204 9.97 14.9904 12.65 14.9604C21.61 14.8404 28.99 22.8104 31.45 31.4204C33.91 40.0404 32.65 49.2104 31.73 58.1203C30.82 67.0303 30.35 76.4304 34.18 84.5303C35.18 86.6404 36.51 88.6804 38.44 89.9903C42.77 92.9304 48.54 91.4704 53.7 90.6104C66.38 88.4704 79.76 90.7303 91.04 96.9203C95.03 99.1104 99 102.1 100.32 106.46C101.38 109.99 100.5 113.78 99.83 117.41C96.7 134.12 99.2 153.84 112.86 163.95C129.24 176.08 156.2 170.52 168.28 186.95C177.37 199.33 172.55 217.91 181.02 230.73C189.92 244.19 208.82 245.4 223.25 252.63C238.82 260.44 249.3 275.59 263.36 285.89C273.54 293.34 285.61 298.17 298.11 299.79Z" fill="#0303B5"/>
<path d="M205.44 299.79L131.97 299.78C130.65 291.02 122.04 285.43 114.15 281.3C106.2 277.15 97.29 272.31 94.92 263.65C93.87 259.84 94.29 255.71 93.06 251.95C90.85 245.16 83.93 241.12 77.22 238.69C70.51 236.26 63.24 234.68 57.7 230.19C50.62 224.45 47.72 215.09 45.85 206.18C44.78 201.07 43.76 195.6 40.16 191.82C38.19 189.75 35.59 188.38 32.98 187.2C27.04 184.51 20.74 182.59 14.31 181.52C11.08 180.97 7.66998 180.59 4.99998 178.7C1.87998 176.5 0.559976 172.94 0.0999756 169.06V169.02L0.309976 41.96C5.69998 43.22 10.51 48.04 12.34 53.45C14.87 60.91 13.46 69.01 12.68 76.84C11.67 86.95 11.75 97.16 12.92 107.25C13.57 112.82 14.6 118.52 17.59 123.3C28.15 140.2 55.82 137.17 69.62 151.65C82.49 165.17 78.27 188.44 90.56 202.46C98.03 210.99 109.85 214.11 120.55 218.16C131.24 222.21 142.51 228.96 144.85 239.97C146.51 247.78 143.16 256.01 144.87 263.82C147.65 276.53 162.04 282.88 174.84 286.26C185.75 289.15 197.94 292.04 205.44 299.79Z" fill="#0404E2"/>
<path d="M131.97 299.77H-0.109985L0.100015 169.06C0.560015 172.94 1.88001 176.5 5.00001 178.7C7.67001 180.59 11.08 180.97 14.31 181.52C20.74 182.59 27.04 184.51 32.98 187.2C35.59 188.38 38.19 189.75 40.16 191.82C43.76 195.6 44.78 201.07 45.85 206.18C47.72 215.09 50.62 224.45 57.7 230.19C63.24 234.68 70.51 236.26 77.22 238.69C83.93 241.12 90.85 245.16 93.06 251.95C94.29 255.71 93.87 259.84 94.92 263.65C97.29 272.31 106.2 277.15 114.15 281.3C122.04 285.43 130.65 291.02 131.97 299.77Z" fill="#4D5AA8"/>
</g>
<defs>
<clipPath id="clip0_376_23">
<rect width="300" height="300" fill="white"/>
</clipPath>
</defs>
</svg>
