<svg id="visual" viewBox="0 0 900 600" width="900" height="600" xmlns="http://www.w3.org/2000/svg" xmlns:xlink="http://www.w3.org/1999/xlink" version="1.1"><rect x="0" y="0" width="900" height="600" fill="#ffffff"></rect><path d="M0 428L11.5 426.7C23 425.3 46 422.7 69 420.3C92 418 115 416 138.2 416.3C161.3 416.7 184.7 419.3 207.8 426C231 432.7 254 443.3 277 427.2C300 411 323 368 346 352.8C369 337.7 392 350.3 415.2 374.5C438.3 398.7 461.7 434.3 484.8 445.8C508 457.3 531 444.7 554 434.2C577 423.7 600 415.3 623 420.8C646 426.3 669 445.7 692.2 435.5C715.3 425.3 738.7 385.7 761.8 375.5C785 365.3 808 384.7 831 388.2C854 391.7 877 379.3 888.5 373.2L900 367L900 601L888.5 601C877 601 854 601 831 601C808 601 785 601 761.8 601C738.7 601 715.3 601 692.2 601C669 601 646 601 623 601C600 601 577 601 554 601C531 601 508 601 484.8 601C461.7 601 438.3 601 415.2 601C392 601 369 601 346 601C323 601 300 601 277 601C254 601 231 601 207.8 601C184.7 601 161.3 601 138.2 601C115 601 92 601 69 601C46 601 23 601 11.5 601L0 601Z" fill="#000962"></path><path d="M0 470L11.5 460.7C23 451.3 46 432.7 69 417.8C92 403 115 392 138.2 396C161.3 400 184.7 419 207.8 436.5C231 454 254 470 277 474.2C300 478.3 323 470.7 346 467C369 463.3 392 463.7 415.2 463.5C438.3 463.3 461.7 462.7 484.8 449.5C508 436.3 531 410.7 554 415.5C577 420.3 600 455.7 623 473.2C646 490.7 669 490.3 692.2 473C715.3 455.7 738.7 421.3 761.8 422.5C785 423.7 808 460.3 831 459.3C854 458.3 877 419.7 888.5 400.3L900 381L900 601L888.5 601C877 601 854 601 831 601C808 601 785 601 761.8 601C738.7 601 715.3 601 692.2 601C669 601 646 601 623 601C600 601 577 601 554 601C531 601 508 601 484.8 601C461.7 601 438.3 601 415.2 601C392 601 369 601 346 601C323 601 300 601 277 601C254 601 231 601 207.8 601C184.7 601 161.3 601 138.2 601C115 601 92 601 69 601C46 601 23 601 11.5 601L0 601Z" fill="#00469a"></path><path d="M0 482L11.5 480.5C23 479 46 476 69 479.5C92 483 115 493 138.2 503C161.3 513 184.7 523 207.8 521.8C231 520.7 254 508.3 277 504.8C300 501.3 323 506.7 346 494.3C369 482 392 452 415.2 454.7C438.3 457.3 461.7 492.7 484.8 510.2C508 527.7 531 527.3 554 527.2C577 527 600 527 623 517C646 507 669 487 692.2 485.8C715.3 484.7 738.7 502.3 761.8 504.5C785 506.7 808 493.3 831 493C854 492.7 877 505.3 888.5 511.7L900 518L900 601L888.5 601C877 601 854 601 831 601C808 601 785 601 761.8 601C738.7 601 715.3 601 692.2 601C669 601 646 601 623 601C600 601 577 601 554 601C531 601 508 601 484.8 601C461.7 601 438.3 601 415.2 601C392 601 369 601 346 601C323 601 300 601 277 601C254 601 231 601 207.8 601C184.7 601 161.3 601 138.2 601C115 601 92 601 69 601C46 601 23 601 11.5 601L0 601Z" fill="#0081ca"></path><path d="M0 507L11.5 504.2C23 501.3 46 495.7 69 489.3C92 483 115 476 138.2 486.3C161.3 496.7 184.7 524.3 207.8 534.5C231 544.7 254 537.3 277 525.7C300 514 323 498 346 492.8C369 487.7 392 493.3 415.2 500C438.3 506.7 461.7 514.3 484.8 524.3C508 534.3 531 546.7 554 543C577 539.3 600 519.7 623 516.2C646 512.7 669 525.3 692.2 520C715.3 514.7 738.7 491.3 761.8 493.7C785 496 808 524 831 535.8C854 547.7 877 543.3 888.5 541.2L900 539L900 601L888.5 601C877 601 854 601 831 601C808 601 785 601 761.8 601C738.7 601 715.3 601 692.2 601C669 601 646 601 623 601C600 601 577 601 554 601C531 601 508 601 484.8 601C461.7 601 438.3 601 415.2 601C392 601 369 601 346 601C323 601 300 601 277 601C254 601 231 601 207.8 601C184.7 601 161.3 601 138.2 601C115 601 92 601 69 601C46 601 23 601 11.5 601L0 601Z" fill="#00bcec"></path><path d="M0 544L11.5 548C23 552 46 560 69 558.2C92 556.3 115 544.7 138.2 545.5C161.3 546.3 184.7 559.7 207.8 566.8C231 574 254 575 277 569.3C300 563.7 323 551.3 346 547.7C369 544 392 549 415.2 545.3C438.3 541.7 461.7 529.3 484.8 532.2C508 535 531 553 554 562C577 571 600 571 623 570C646 569 669 567 692.2 558.8C715.3 550.7 738.7 536.3 761.8 534C785 531.7 808 541.3 831 543.2C854 545 877 539 888.5 536L900 533L900 601L888.5 601C877 601 854 601 831 601C808 601 785 601 761.8 601C738.7 601 715.3 601 692.2 601C669 601 646 601 623 601C600 601 577 601 554 601C531 601 508 601 484.8 601C461.7 601 438.3 601 415.2 601C392 601 369 601 346 601C323 601 300 601 277 601C254 601 231 601 207.8 601C184.7 601 161.3 601 138.2 601C115 601 92 601 69 601C46 601 23 601 11.5 601L0 601Z" fill="#2ff4f4"></path></svg>