<svg width="500" height="500" viewBox="0 0 500 500" fill="none" xmlns="http://www.w3.org/2000/svg">
<g clip-path="url(#clip0_376_9)">
<path d="M499.95 405.67V405.69C499.85 408.79 499.59 411.86 499.2 414.88C494.65 449.75 471.06 478.5 439.44 489.92C429.94 493.35 419.71 495.22 409.06 495.22C398.41 495.22 388.18 493.35 378.68 489.92C366.4 485.49 355.34 478.44 346.13 469.44C342.35 463.28 337.59 457.51 332.23 452.14C301.4 421.26 250.64 403.69 250.64 403.69C151.8 375.56 180.46 219.25 180.46 219.25C197.49 91.52 106.96 100.75 106.96 100.75C-54.5999 85.07 21.0301 0 21.0301 0H500L499.84 392.05L499.89 397.92L499.95 405.67Z" fill="#0303B5"/>
<path d="M6.66992 70.4502C6.66992 70.4502 24.0899 109.74 96.3499 109.28C96.3499 109.28 29.1099 122.46 6.66992 70.4502Z" fill="#0303B5"/>
<path d="M171.1 151.24C171.1 151.24 183.14 194.13 171.1 235.17C171.1 235.17 178.57 184.44 171.1 151.24Z" fill="#0303B5"/>
<path d="M169.02 288.65C169.02 288.65 166.11 338.45 193.94 373.49C193.94 373.49 161.55 350.44 169.02 288.65Z" fill="#0303B5"/>
<path d="M243.36 406.69C243.36 406.69 332.07 450.63 346.97 482.54C346.97 482.54 322.84 453.86 292.68 440.91C292.68 440.92 268.91 430.74 243.36 406.69Z" fill="#0303B5" stroke="#0303B5" stroke-miterlimit="10"/>
<path d="M497.964 289.987V290.001C497.893 292.217 497.706 294.411 497.427 296.57C494.165 321.497 477.256 342.048 454.591 350.211C447.781 352.663 440.448 354 432.814 354C425.18 354 417.848 352.663 411.038 350.211C402.236 347.045 394.308 342.005 387.706 335.572C384.997 331.168 381.585 327.044 377.743 323.205C355.644 301.131 319.259 288.571 319.259 288.571C248.411 268.463 268.954 156.727 268.954 156.727C281.161 65.4216 216.27 72.0195 216.27 72.0195C100.464 60.8109 154.675 0 154.675 0H498L497.885 280.251L497.921 284.447L497.964 289.987Z" fill="#0404E2"/>
<path d="M499.976 192.505V192.515C499.929 193.986 499.805 195.443 499.62 196.876C497.458 213.423 486.248 227.066 471.223 232.485C466.709 234.113 461.848 235 456.787 235C451.726 235 446.865 234.113 442.351 232.485C436.516 230.383 431.26 227.037 426.884 222.766C425.088 219.843 422.826 217.105 420.279 214.557C405.629 199.903 381.509 191.566 381.509 191.566C334.542 178.217 348.161 104.042 348.161 104.042C356.253 43.4296 313.235 47.8096 313.235 47.8096C236.465 40.3688 272.403 0 272.403 0H500L499.924 186.042L499.948 188.828L499.976 192.505Z" fill="#2FF4F4"/>
</g>
<defs>
<clipPath id="clip0_376_9">
<rect width="500" height="500" fill="white"/>
</clipPath>
</defs>
</svg>
