<svg width="236" height="235" viewBox="0 0 236 235" fill="none" xmlns="http://www.w3.org/2000/svg">
<path d="M235.976 192.505V192.515C235.929 193.986 235.805 195.443 235.62 196.876C233.458 213.423 222.248 227.066 207.223 232.485C202.709 234.113 197.848 235 192.787 235C187.726 235 182.865 234.113 178.351 232.485C172.516 230.383 167.26 227.037 162.884 222.766C161.088 219.843 158.826 217.105 156.279 214.557C141.629 199.903 117.509 191.566 117.509 191.566C70.542 178.217 84.1607 104.042 84.1607 104.042C92.253 43.4296 49.2349 47.8096 49.2349 47.8096C-27.5354 40.3688 8.40257 0 8.40257 0H236L235.924 186.042L235.948 188.828L235.976 192.505Z" fill="#2FF4F4"/>
</svg>
