<svg width="356" height="354" viewBox="0 0 356 354" fill="none" xmlns="http://www.w3.org/2000/svg">
<path d="M355.964 289.987V290.001C355.893 292.217 355.706 294.411 355.427 296.57C352.165 321.497 335.256 342.048 312.591 350.211C305.781 352.663 298.448 354 290.814 354C283.18 354 275.848 352.663 269.038 350.211C260.236 347.045 252.308 342.005 245.706 335.572C242.997 331.168 239.585 327.044 235.743 323.205C213.644 301.131 177.259 288.571 177.259 288.571C106.411 268.463 126.954 156.727 126.954 156.727C139.161 65.4216 74.2696 72.0195 74.2696 72.0195C-41.5364 60.8109 12.6751 0 12.6751 0H356L355.885 280.251L355.921 284.447L355.964 289.987Z" fill="#0404E2"/>
</svg>
