<svg width="497" height="496" viewBox="0 0 497 496" fill="none" xmlns="http://www.w3.org/2000/svg">
<path d="M496.95 405.67V405.69C496.85 408.79 496.59 411.86 496.2 414.88C491.65 449.75 468.06 478.5 436.44 489.92C426.94 493.35 416.71 495.22 406.06 495.22C395.41 495.22 385.18 493.35 375.68 489.92C363.4 485.49 352.34 478.44 343.13 469.44C339.35 463.28 334.59 457.51 329.23 452.14C298.4 421.26 247.64 403.69 247.64 403.69C148.8 375.56 177.46 219.25 177.46 219.25C194.49 91.52 103.96 100.75 103.96 100.75C-57.5999 85.07 18.0301 0 18.0301 0H497L496.84 392.05L496.89 397.92L496.95 405.67Z" fill="#0303B5"/>
<path d="M3.66992 70.4502C3.66992 70.4502 21.0899 109.74 93.3499 109.28C93.3499 109.28 26.1099 122.46 3.66992 70.4502Z" fill="#0303B5"/>
<path d="M168.1 151.24C168.1 151.24 180.14 194.13 168.1 235.17C168.1 235.17 175.57 184.44 168.1 151.24Z" fill="#0303B5"/>
<path d="M166.02 288.65C166.02 288.65 163.11 338.45 190.94 373.49C190.94 373.49 158.55 350.44 166.02 288.65Z" fill="#0303B5"/>
<path d="M240.36 406.69C240.36 406.69 329.07 450.63 343.97 482.54C343.97 482.54 319.84 453.86 289.68 440.91C289.68 440.92 265.91 430.74 240.36 406.69Z" fill="#0303B5" stroke="#0303B5" stroke-miterlimit="10"/>
</svg>
