<svg width="300" height="300" viewBox="0 0 300 300" fill="none" xmlns="http://www.w3.org/2000/svg">
<path d="M239.44 168.259C239.44 198.969 226.88 226.759 206.61 246.749H174.11C168.52 240.069 163.2 242.579 159.28 246.749H125.86C124.2 244.999 122.57 244.089 121 243.809C113.27 234.869 106.73 233.889 101.59 236.039C100.35 236.559 99.1901 237.259 98.1201 238.079C94.9001 240.539 92.4501 244.049 90.8901 246.759H51.7601C31.4901 226.759 18.9301 198.989 18.9301 168.269C18.9301 155.959 20.9501 144.119 24.6701 133.069H233.7C237.42 144.109 239.44 155.949 239.44 168.259Z" stroke="black" stroke-width="2" stroke-miterlimit="10"/>
<path d="M218.22 214.4C218.22 214.4 206.12 224.38 191.33 214.4C191.33 214.4 193.85 208.58 197.76 204.42C201.68 200.25 207 197.74 212.59 204.42C214.45 206.63 216.34 209.87 218.22 214.4Z" fill="white" stroke="black" stroke-width="2" stroke-miterlimit="10"/>
<path d="M206.61 246.749C196.76 256.469 185.09 264.339 172.17 269.819H86.2C73.28 264.339 61.61 256.469 51.77 246.749H90.89C89.55 249.069 88.85 250.809 88.85 250.809C88.85 250.809 98.54 256.189 108.48 253.499C109.73 251.319 111.46 248.719 113.52 246.749C115.69 244.669 118.25 243.279 121 243.809C122.57 244.099 124.2 244.999 125.86 246.749H159.28C155.37 250.909 152.85 256.729 152.85 256.729C167.64 266.709 179.74 256.729 179.74 256.729C177.86 252.199 175.97 248.959 174.11 246.749H206.61Z" stroke="black" stroke-width="2" stroke-miterlimit="10"/>
<path d="M233.7 133.06H24.67C31.31 113.35 43.36 96.1298 59.07 83.1798C61.58 81.0998 64.2 79.1298 66.89 77.2898C79.04 74.2998 102.89 72.2598 130.33 72.2598C155.41 72.2598 177.49 73.9598 190.38 76.5398C193.85 78.8598 197.17 81.3598 200.34 84.0498C215.54 96.8898 227.21 113.78 233.7 133.06Z" stroke="black" stroke-width="2" stroke-miterlimit="10"/>
<path d="M200.34 84.0398C192.74 88.2298 164.27 91.3498 130.33 91.3498C94.0701 91.3498 64.0701 87.7898 59.0701 83.1798C61.5801 81.0998 64.2001 79.1298 66.8901 77.2898C79.0401 74.2998 102.89 72.2598 130.33 72.2598C155.41 72.2598 177.49 73.9598 190.38 76.5398C193.85 78.8498 197.17 81.3498 200.34 84.0398Z" stroke="black" stroke-width="2" stroke-miterlimit="10"/>
<path d="M198.88 262.05H198.87" stroke="black" stroke-width="2" stroke-miterlimit="10"/>
<path d="M131.6 256.189C131.6 256.189 121.92 265.869 106.32 257.809C106.32 257.809 107.1 255.909 108.47 253.499C109.72 251.319 111.45 248.719 113.51 246.749C115.68 244.669 118.24 243.279 120.99 243.809C122.56 244.099 124.19 244.999 125.85 246.749C127.74 248.719 129.67 251.759 131.6 256.189Z" stroke="black" stroke-width="2" stroke-miterlimit="10"/>
<path d="M121 243.799C118.25 243.279 115.69 244.669 113.52 246.739C111.45 248.709 109.73 251.309 108.48 253.489C98.5401 256.179 88.8501 250.799 88.8501 250.799C88.8501 250.799 89.5501 249.059 90.8901 246.739C92.4501 244.029 94.9001 240.519 98.1201 238.059C99.1901 237.239 100.35 236.539 101.59 236.019C106.73 233.879 113.28 234.869 121 243.799Z" stroke="black" stroke-width="2" stroke-miterlimit="10"/>
<path d="M65.7201 147.819C65.7201 147.819 44.2101 184.659 74.5901 205.099C76.0601 207.969 104.06 226.129 101.41 238.069" stroke="black" stroke-width="2" stroke-miterlimit="10"/>
<path d="M283.4 46.3599V71.1599H264.93V91.3499H240.14V71.1599H218.22V46.3599H240.14V26.1699H264.93V46.3599H283.4Z" fill="#ED2024" stroke="black" stroke-width="2" stroke-miterlimit="10"/>
<path d="M68.13 150.67C68.13 150.67 81.86 127.82 90.69 141.91C90.7 141.92 91.16 160.02 68.13 150.67Z" stroke="black" stroke-width="2" stroke-miterlimit="10"/>
<path d="M56.6501 165.659C56.6501 165.659 30.1401 162.829 39.2001 148.879C39.2001 148.879 55.4301 140.839 56.6501 165.659Z" stroke="black" stroke-width="2" stroke-miterlimit="10"/>
<path d="M60.77 167.99C60.77 167.99 81.87 151.7 84.97 168.04C84.98 168.04 78.83 185.07 60.77 167.99Z" stroke="black" stroke-width="2" stroke-miterlimit="10"/>
<path d="M59.07 192.29C59.07 192.29 38.89 209.7 34.9 193.56C34.9 193.56 40.11 176.22 59.07 192.29Z" stroke="black" stroke-width="2" stroke-miterlimit="10"/>
<path d="M64.74 192.72C64.74 192.72 77.73 169.44 87.01 183.24C87.01 183.23 88.06 201.31 64.74 192.72Z" stroke="black" stroke-width="2" stroke-miterlimit="10"/>
<path d="M79.81 212.95C79.81 212.95 66.43 236 57.38 222.05C57.38 222.05 56.64 203.95 79.81 212.95Z" stroke="black" stroke-width="2" stroke-miterlimit="10"/>
<path d="M87.6 213.369C87.6 213.369 87.73 186.709 102.52 194.309C102.52 194.309 112.17 209.629 87.6 213.369Z" stroke="black" stroke-width="2" stroke-miterlimit="10"/>
</svg>
